<svg width="184" height="23" viewBox="0 0 184 23" fill="none" xmlns="http://www.w3.org/2000/svg">
<path d="M18.676 9.488C19.796 9.488 20.7947 9.768 21.672 10.328C22.5493 10.888 23.2307 11.672 23.716 12.68C24.2013 13.6693 24.444 14.7987 24.444 16.068V24.16C24.444 24.4027 24.3693 24.608 24.22 24.776C24.0707 24.9253 23.8653 25 23.604 25C23.3613 25 23.156 24.9253 22.988 24.776C22.8387 24.608 22.764 24.4027 22.764 24.16V16.068C22.764 14.6307 22.3813 13.4547 21.616 12.54C20.8507 11.6253 19.8707 11.168 18.676 11.168C17.3693 11.168 16.3147 11.5973 15.512 12.456C14.7093 13.3147 14.3267 14.4533 14.364 15.872V16.068V24.16C14.364 24.4027 14.2893 24.608 14.14 24.776C13.9907 24.9253 13.7853 25 13.524 25C13.2813 25 13.076 24.9253 12.908 24.776C12.7587 24.608 12.684 24.4027 12.684 24.16V16.068C12.684 14.6307 12.3013 13.4547 11.536 12.54C10.7707 11.6253 9.79067 11.168 8.596 11.168C7.308 11.168 6.25333 11.5787 5.432 12.4C4.61067 13.2213 4.2 14.2853 4.2 15.592V24.16C4.2 24.4027 4.12533 24.608 3.976 24.776C3.82667 24.9253 3.62133 25 3.36 25C3.11733 25 2.912 24.9253 2.744 24.776C2.59467 24.608 2.52 24.4027 2.52 24.16V10.524C2.52 10.2627 2.59467 10.0573 2.744 9.908C2.912 9.75867 3.11733 9.684 3.36 9.684C3.62133 9.684 3.82667 9.75867 3.976 9.908C4.12533 10.0573 4.2 10.2627 4.2 10.524V11.616C4.72267 10.944 5.36667 10.4213 6.132 10.048C6.89733 9.67467 7.71867 9.488 8.596 9.488C9.67867 9.488 10.6493 9.75867 11.508 10.3C12.3667 10.8227 13.048 11.5507 13.552 12.484C14.056 11.5507 14.756 10.8227 15.652 10.3C16.548 9.75867 17.556 9.488 18.676 9.488ZM35.2595 9.544C36.6222 9.544 37.8355 9.87067 38.8995 10.524C39.9822 11.1587 40.8222 12.0453 41.4195 13.184C42.0168 14.3227 42.3155 15.62 42.3155 17.076C42.3155 17.3187 42.2408 17.5147 42.0915 17.664C41.9422 17.7947 41.7462 17.86 41.5035 17.86H29.7715C29.8275 18.9613 30.1168 19.9507 30.6395 20.828C31.1622 21.6867 31.8622 22.3587 32.7395 22.844C33.6168 23.3293 34.5968 23.572 35.6795 23.572C36.4075 23.572 37.1355 23.4507 37.8635 23.208C38.6102 22.9467 39.1982 22.6107 39.6275 22.2C39.8142 22.0507 40.0102 21.976 40.2155 21.976C40.4208 21.976 40.5888 22.032 40.7195 22.144C40.9248 22.312 41.0275 22.508 41.0275 22.732C41.0275 22.9187 40.9435 23.096 40.7755 23.264C40.1782 23.8053 39.3942 24.2533 38.4235 24.608C37.4715 24.9627 36.5568 25.14 35.6795 25.14C34.2048 25.14 32.8888 24.8133 31.7315 24.16C30.5928 23.488 29.6968 22.564 29.0435 21.388C28.3902 20.1933 28.0635 18.8493 28.0635 17.356C28.0635 15.844 28.3622 14.5 28.9595 13.324C29.5755 12.1293 30.4248 11.2053 31.5075 10.552C32.6088 9.88 33.8595 9.544 35.2595 9.544ZM35.2595 11.112C33.8035 11.112 32.5715 11.5973 31.5635 12.568C30.5742 13.5387 29.9862 14.8173 29.7995 16.404H40.6915C40.5608 14.8173 40.0008 13.5387 39.0115 12.568C38.0222 11.5973 36.7715 11.112 35.2595 11.112ZM59.0871 3.132C59.3485 3.132 59.5538 3.20667 59.7031 3.356C59.8525 3.50533 59.9271 3.71067 59.9271 3.972V17.44V17.496C59.9085 18.9333 59.5538 20.24 58.8631 21.416C58.1725 22.592 57.2298 23.516 56.0351 24.188C54.8591 24.8413 53.5525 25.168 52.1151 25.168C50.6405 25.168 49.3058 24.832 48.1111 24.16C46.9165 23.4693 45.9738 22.5267 45.2831 21.332C44.6111 20.1373 44.2751 18.8027 44.2751 17.328C44.2751 15.872 44.6111 14.5467 45.2831 13.352C45.9738 12.1573 46.9165 11.224 48.1111 10.552C49.3058 9.86133 50.6405 9.516 52.1151 9.516C53.4405 9.516 54.6351 9.80533 55.6991 10.384C56.7818 10.944 57.6311 11.7187 58.2471 12.708V3.972C58.2471 3.71067 58.3218 3.50533 58.4711 3.356C58.6391 3.20667 58.8445 3.132 59.0871 3.132ZM52.1151 23.6C53.2725 23.6 54.3178 23.3293 55.2511 22.788C56.1845 22.228 56.9125 21.472 57.4351 20.52C57.9765 19.568 58.2471 18.504 58.2471 17.328C58.2471 16.152 57.9765 15.088 57.4351 14.136C56.9125 13.184 56.1845 12.4373 55.2511 11.896C54.3178 11.3547 53.2725 11.084 52.1151 11.084C50.9578 11.084 49.9125 11.3547 48.9791 11.896C48.0458 12.4373 47.3085 13.184 46.7671 14.136C46.2258 15.088 45.9551 16.152 45.9551 17.328C45.9551 18.504 46.2258 19.568 46.7671 20.52C47.3085 21.472 48.0458 22.228 48.9791 22.788C49.9125 23.3293 50.9578 23.6 52.1151 23.6ZM66.0627 25C65.82 25 65.6147 24.9253 65.4467 24.776C65.2974 24.608 65.2227 24.4027 65.2227 24.16V10.524C65.2227 10.2627 65.2974 10.0573 65.4467 9.908C65.6147 9.75867 65.82 9.684 66.0627 9.684C66.324 9.684 66.5294 9.75867 66.6787 9.908C66.828 10.0573 66.9027 10.2627 66.9027 10.524V24.16C66.9027 24.4027 66.828 24.608 66.6787 24.776C66.5294 24.9253 66.324 25 66.0627 25ZM66.0347 6.464C65.6614 6.464 65.3534 6.34267 65.1107 6.1C64.868 5.83867 64.7467 5.52133 64.7467 5.148C64.7467 4.73733 64.8774 4.42 65.1387 4.196C65.4 3.972 65.708 3.86 66.0627 3.86C66.4174 3.86 66.716 3.972 66.9587 4.196C67.22 4.42 67.3507 4.73733 67.3507 5.148C67.3507 5.52133 67.22 5.83867 66.9587 6.1C66.716 6.34267 66.408 6.464 66.0347 6.464ZM79.0663 4.644C77.7037 4.644 76.7143 5.10133 76.0983 6.016C75.4823 6.912 75.1743 8.12533 75.1743 9.656V10.244H78.8703C79.0943 10.244 79.2717 10.3187 79.4023 10.468C79.5517 10.5987 79.6263 10.776 79.6263 11C79.6263 11.224 79.5517 11.4107 79.4023 11.56C79.2717 11.6907 79.0943 11.756 78.8703 11.756H75.1743V24.16C75.1743 24.4027 75.0903 24.608 74.9223 24.776C74.773 24.9253 74.5677 25 74.3063 25C74.0637 25 73.8583 24.9253 73.6903 24.776C73.541 24.608 73.4663 24.4027 73.4663 24.16V11.756H71.2823C71.0583 11.756 70.8717 11.6907 70.7223 11.56C70.5917 11.4107 70.5263 11.224 70.5263 11C70.5263 10.776 70.5917 10.5987 70.7223 10.468C70.8717 10.3187 71.0583 10.244 71.2823 10.244H73.4663V9.656C73.4663 7.65867 73.933 6.072 74.8663 4.896C75.7997 3.72 77.1997 3.132 79.0663 3.132C79.309 3.132 79.505 3.20667 79.6543 3.356C79.8223 3.48667 79.9063 3.664 79.9063 3.888C79.9063 4.112 79.8223 4.29867 79.6543 4.448C79.505 4.57867 79.309 4.644 79.0663 4.644ZM88.6249 9.516C90.0436 9.516 90.7529 9.824 90.7529 10.44C90.7529 10.5333 90.7436 10.608 90.7249 10.664C90.6689 10.8693 90.5756 11.0187 90.4449 11.112C90.3329 11.1867 90.1742 11.224 89.9689 11.224C89.8009 11.224 89.5769 11.2053 89.2969 11.168C89.0356 11.1307 88.8116 11.112 88.6249 11.112C87.6916 11.112 86.8609 11.308 86.1329 11.7C85.4049 12.092 84.8356 12.6333 84.4249 13.324C84.0142 14.0147 83.8089 14.7893 83.8089 15.648V24.16C83.8089 24.4027 83.7342 24.608 83.5849 24.776C83.4356 24.9253 83.2302 25 82.9689 25C82.7262 25 82.5209 24.9253 82.3529 24.776C82.2036 24.608 82.1289 24.4027 82.1289 24.16V10.524C82.1289 10.2627 82.2036 10.0573 82.3529 9.908C82.5209 9.75867 82.7262 9.684 82.9689 9.684C83.2302 9.684 83.4356 9.75867 83.5849 9.908C83.7342 10.0573 83.8089 10.2627 83.8089 10.524V12.26C84.3502 11.4013 85.0409 10.7293 85.8809 10.244C86.7209 9.75867 87.6356 9.516 88.6249 9.516ZM95.5022 25C95.2596 25 95.0542 24.9253 94.8862 24.776C94.7369 24.608 94.6622 24.4027 94.6622 24.16V10.524C94.6622 10.2627 94.7369 10.0573 94.8862 9.908C95.0542 9.75867 95.2596 9.684 95.5022 9.684C95.7636 9.684 95.9689 9.75867 96.1182 9.908C96.2676 10.0573 96.3422 10.2627 96.3422 10.524V24.16C96.3422 24.4027 96.2676 24.608 96.1182 24.776C95.9689 24.9253 95.7636 25 95.5022 25ZM95.4742 6.464C95.1009 6.464 94.7929 6.34267 94.5502 6.1C94.3076 5.83867 94.1862 5.52133 94.1862 5.148C94.1862 4.73733 94.3169 4.42 94.5782 4.196C94.8396 3.972 95.1476 3.86 95.5022 3.86C95.8569 3.86 96.1556 3.972 96.3982 4.196C96.6596 4.42 96.7902 4.73733 96.7902 5.148C96.7902 5.52133 96.6596 5.83867 96.3982 6.1C96.1556 6.34267 95.8476 6.464 95.4742 6.464ZM108.002 9.544C109.365 9.544 110.578 9.87067 111.642 10.524C112.725 11.1587 113.565 12.0453 114.162 13.184C114.759 14.3227 115.058 15.62 115.058 17.076C115.058 17.3187 114.983 17.5147 114.834 17.664C114.685 17.7947 114.489 17.86 114.246 17.86H102.514C102.57 18.9613 102.859 19.9507 103.382 20.828C103.905 21.6867 104.605 22.3587 105.482 22.844C106.359 23.3293 107.339 23.572 108.422 23.572C109.15 23.572 109.878 23.4507 110.606 23.208C111.353 22.9467 111.941 22.6107 112.37 22.2C112.557 22.0507 112.753 21.976 112.958 21.976C113.163 21.976 113.331 22.032 113.462 22.144C113.667 22.312 113.77 22.508 113.77 22.732C113.77 22.9187 113.686 23.096 113.518 23.264C112.921 23.8053 112.137 24.2533 111.166 24.608C110.214 24.9627 109.299 25.14 108.422 25.14C106.947 25.14 105.631 24.8133 104.474 24.16C103.335 23.488 102.439 22.564 101.786 21.388C101.133 20.1933 100.806 18.8493 100.806 17.356C100.806 15.844 101.105 14.5 101.702 13.324C102.318 12.1293 103.167 11.2053 104.25 10.552C105.351 9.88 106.602 9.544 108.002 9.544ZM108.002 11.112C106.546 11.112 105.314 11.5973 104.306 12.568C103.317 13.5387 102.729 14.8173 102.542 16.404H113.434C113.303 14.8173 112.743 13.5387 111.754 12.568C110.765 11.5973 109.514 11.112 108.002 11.112ZM125.404 9.488C126.767 9.488 127.98 9.768 129.044 10.328C130.127 10.888 130.967 11.7093 131.564 12.792C132.18 13.856 132.488 15.1347 132.488 16.628V24.16C132.488 24.4027 132.404 24.608 132.236 24.776C132.087 24.9253 131.891 25 131.648 25C131.406 25 131.2 24.9253 131.032 24.776C130.883 24.608 130.808 24.4027 130.808 24.16V16.628C130.808 14.8547 130.304 13.5013 129.296 12.568C128.307 11.6347 127.01 11.168 125.404 11.168C124.415 11.168 123.51 11.364 122.688 11.756C121.886 12.1293 121.251 12.6613 120.784 13.352C120.318 14.024 120.084 14.7707 120.084 15.592V24.16C120.084 24.4027 120.01 24.608 119.86 24.776C119.711 24.9253 119.506 25 119.244 25C119.002 25 118.796 24.9253 118.628 24.776C118.479 24.608 118.404 24.4027 118.404 24.16V10.524C118.404 10.2627 118.479 10.0573 118.628 9.908C118.796 9.75867 119.002 9.684 119.244 9.684C119.506 9.684 119.711 9.75867 119.86 9.908C120.01 10.0573 120.084 10.2627 120.084 10.524V11.98C120.719 11.196 121.494 10.5893 122.408 10.16C123.323 9.712 124.322 9.488 125.404 9.488ZM150.912 3.132C151.174 3.132 151.379 3.20667 151.528 3.356C151.678 3.50533 151.752 3.71067 151.752 3.972V17.44V17.496C151.734 18.9333 151.379 20.24 150.688 21.416C149.998 22.592 149.055 23.516 147.86 24.188C146.684 24.8413 145.378 25.168 143.94 25.168C142.466 25.168 141.131 24.832 139.936 24.16C138.742 23.4693 137.799 22.5267 137.108 21.332C136.436 20.1373 136.1 18.8027 136.1 17.328C136.1 15.872 136.436 14.5467 137.108 13.352C137.799 12.1573 138.742 11.224 139.936 10.552C141.131 9.86133 142.466 9.516 143.94 9.516C145.266 9.516 146.46 9.80533 147.524 10.384C148.607 10.944 149.456 11.7187 150.072 12.708V3.972C150.072 3.71067 150.147 3.50533 150.296 3.356C150.464 3.20667 150.67 3.132 150.912 3.132ZM143.94 23.6C145.098 23.6 146.143 23.3293 147.076 22.788C148.01 22.228 148.738 21.472 149.26 20.52C149.802 19.568 150.072 18.504 150.072 17.328C150.072 16.152 149.802 15.088 149.26 14.136C148.738 13.184 148.01 12.4373 147.076 11.896C146.143 11.3547 145.098 11.084 143.94 11.084C142.783 11.084 141.738 11.3547 140.804 11.896C139.871 12.4373 139.134 13.184 138.592 14.136C138.051 15.088 137.78 16.152 137.78 17.328C137.78 18.504 138.051 19.568 138.592 20.52C139.134 21.472 139.871 22.228 140.804 22.788C141.738 23.3293 142.783 23.6 143.94 23.6ZM170.964 22.76C171.15 23.0587 171.244 23.3667 171.244 23.684C171.244 24.0573 171.113 24.3747 170.852 24.636C170.609 24.8787 170.273 25 169.844 25C169.302 25 168.882 24.7667 168.584 24.3L163.768 16.572H163.264H159.68V23.544C159.68 23.9547 159.54 24.3 159.26 24.58C158.998 24.86 158.653 25 158.224 25C157.813 25 157.468 24.86 157.188 24.58C156.908 24.3 156.768 23.9547 156.768 23.544V4.588C156.768 4.15867 156.908 3.81333 157.188 3.552C157.468 3.272 157.813 3.132 158.224 3.132H163.264C164.645 3.132 165.877 3.42133 166.96 4C168.061 4.57867 168.91 5.39067 169.508 6.436C170.124 7.48133 170.432 8.676 170.432 10.02C170.432 11.3453 170.096 12.5213 169.424 13.548C168.752 14.5747 167.837 15.3493 166.68 15.872L170.964 22.76ZM163.264 13.884C164.533 13.884 165.578 13.5293 166.4 12.82C167.221 12.092 167.632 11.1587 167.632 10.02C167.632 8.788 167.221 7.78 166.4 6.996C165.578 6.212 164.533 5.82 163.264 5.82H159.68V13.884H163.264ZM185.495 22.844C185.757 23.124 185.887 23.4507 185.887 23.824C185.887 24.16 185.766 24.44 185.523 24.664C185.299 24.888 185.001 25 184.627 25C184.179 25 183.843 24.8507 183.619 24.552L179.167 19.232L174.939 24.552C174.659 24.8507 174.323 25 173.931 25C173.558 25 173.259 24.888 173.035 24.664C172.83 24.44 172.727 24.16 172.727 23.824C172.727 23.4507 172.858 23.1053 173.119 22.788L177.459 17.356L172.839 11.896C172.559 11.56 172.419 11.2053 172.419 10.832C172.419 10.5147 172.522 10.244 172.727 10.02C172.951 9.796 173.259 9.684 173.651 9.684C174.099 9.684 174.454 9.84267 174.715 10.16L179.307 15.648L183.423 10.16C183.666 9.84267 184.011 9.684 184.459 9.684C184.833 9.684 185.122 9.80533 185.327 10.048C185.551 10.272 185.663 10.552 185.663 10.888C185.663 11.2987 185.533 11.672 185.271 12.008L181.043 17.524L185.495 22.844Z" transform="translate(-2 -3)" fill="#59A3CF"/>
</svg>
